# xmcd CD database file
#
# Track frame offsets:
#	150
#	39405
#	68837
#	103542
#	137583
#	164903
#	198802
#	239357
#	272589
#	315955
#
# Disc length: 4668 seconds
#
# Revision: 0
# Processed by: cddbd v1.5.2PL0 Copyright (c) Steve Scherf et al.
# Submitted via: CDex 1.70beta2
#
DISCID=83123a0a
DTITLE=Terence Blanchard - Bounce
DYEAR=2003
DGENRE=Jazz
TTITLE0=on the verge
TTITLE1=passionate courage
TTITLE2=fred brown
TTITLE3=nocturna
TTITLE4=azania
TTITLE5=footprints
TTITLE6=transform
TTITLE7=innocence
TTITLE8=bounce/let's go off
TTITLE9=copy protection
EXTD=YEAR: 2003
EXTT0=
EXTT1=
EXTT2=
EXTT3=
EXTT4=
EXTT5=
EXTT6=
EXTT7=
EXTT8=
EXTT9=
PLAYORDER=
